<mxfile host="app.diagrams.net" modified="2024-06-11T05:48:51.860Z" agent="Mozilla/5.0 (X11; Linux x86_64; rv:124.0) Gecko/20100101 Firefox/124.0" version="24.5.2" etag="9NnuNm_h3-A0pBQt1JM-" type="github">
  <diagram name="Page-1" id="PxBN7AJRFxJWHhZFagTj">
    <mxGraphModel>
      <root>
        <mxCell id="0" />
        <mxCell id="1" parent="0" />
      </root>
    </mxGraphModel>
  </diagram>
</mxfile>
